<svg xmlns="http://www.w3.org/2000/svg" width="400" height="400" viewBox="0 0 400 400">
  <defs>
    <radialGradient id="bg" cx="50%" cy="50%" r="70%">
      <stop offset="0%" stop-color="#1A1A1A"/>
      <stop offset="100%" stop-color="#0D0D0D"/>
    </radialGradient>
  </defs>
  <rect width="400" height="400" fill="url(#bg)"/>
  <!-- Mozzarella sticks -->
  <rect x="140" y="130" width="25" height="80" rx="10" fill="#FF751F" opacity="0.7" transform="rotate(-15 152 170)"/>
  <rect x="175" y="125" width="25" height="80" rx="10" fill="#FF751F" opacity="0.6" transform="rotate(5 187 165)"/>
  <rect x="210" y="130" width="25" height="80" rx="10" fill="#FF751F" opacity="0.65" transform="rotate(-8 222 170)"/>
  <rect x="245" y="128" width="25" height="80" rx="10" fill="#FF751F" opacity="0.55" transform="rotate(10 257 168)"/>
  <!-- Cheese pull/stretch -->
  <path d="M165,195 Q170,210 168,225" fill="none" stroke="#FF751F" stroke-width="2" opacity="0.5" stroke-linecap="round"/>
  <path d="M200,200 Q202,215 200,230" fill="none" stroke="#FF751F" stroke-width="2" opacity="0.4" stroke-linecap="round"/>
  <!-- Dipping sauce bowl -->
  <ellipse cx="200" cy="240" rx="30" ry="10" fill="none" stroke="#FF751F" stroke-width="2" opacity="0.4"/>
  <path d="M170,240 Q170,260 200,260 Q230,260 230,240" fill="none" stroke="#FF751F" stroke-width="2" opacity="0.4"/>
  <!-- Label -->
  <text x="200" y="320" text-anchor="middle" font-family="'Montserrat', sans-serif" font-size="22" font-weight="700" fill="#FFFFFF">Mozz Sticks</text>
  <text x="200" y="348" text-anchor="middle" font-family="'Montserrat', sans-serif" font-size="13" fill="#FF751F" font-weight="500">SIDES</text>
</svg>