<svg xmlns="http://www.w3.org/2000/svg" width="400" height="400" viewBox="0 0 400 400">
  <defs>
    <radialGradient id="bg" cx="50%" cy="50%" r="70%">
      <stop offset="0%" stop-color="#1A1A1A"/>
      <stop offset="100%" stop-color="#0D0D0D"/>
    </radialGradient>
  </defs>
  <rect width="400" height="400" fill="url(#bg)"/>
  <!-- Fry container -->
  <path d="M140,230 L155,140 L245,140 L260,230 Z" fill="none" stroke="#FF751F" stroke-width="2.5" opacity="0.6"/>
  <!-- Fries sticking out -->
  <rect x="162" y="100" width="10" height="55" rx="3" fill="#FF751F" opacity="0.7" transform="rotate(-8 167 127)"/>
  <rect x="178" y="95" width="10" height="60" rx="3" fill="#FF751F" opacity="0.6" transform="rotate(3 183 125)"/>
  <rect x="195" y="98" width="10" height="55" rx="3" fill="#FF751F" opacity="0.65" transform="rotate(-2 200 125)"/>
  <rect x="211" y="93" width="10" height="60" rx="3" fill="#FF751F" opacity="0.55" transform="rotate(6 216 123)"/>
  <rect x="227" y="100" width="10" height="52" rx="3" fill="#FF751F" opacity="0.7" transform="rotate(-5 232 126)"/>
  <!-- Cheese drip -->
  <path d="M160,145 Q165,160 160,170 Q155,178 162,185" fill="none" stroke="#FF751F" stroke-width="3" opacity="0.5" stroke-linecap="round"/>
  <path d="M240,148 Q235,162 240,172 Q245,180 238,188" fill="none" stroke="#FF751F" stroke-width="3" opacity="0.5" stroke-linecap="round"/>
  <!-- Topping dots -->
  <circle cx="185" cy="150" r="4" fill="#FF751F" opacity="0.4"/>
  <circle cx="210" cy="145" r="3" fill="#FF751F" opacity="0.35"/>
  <circle cx="200" cy="160" r="4" fill="#FF751F" opacity="0.4"/>
  <!-- Label -->
  <text x="200" y="320" text-anchor="middle" font-family="'Montserrat', sans-serif" font-size="22" font-weight="700" fill="#FFFFFF">Loaded Fries</text>
  <text x="200" y="348" text-anchor="middle" font-family="'Montserrat', sans-serif" font-size="13" fill="#FF751F" font-weight="500">SIDES</text>
</svg>